<svg version="1.1" xmlns="http://www.w3.org/2000/svg" xmlns:xlink="http://www.w3.org/1999/xlink" width="94.53079" height="94.60588" viewBox="0,0,94.53079,94.60588"><g transform="translate(-192.73459,-132.69706)"><g data-paper-data="{&quot;isPaintingLayer&quot;:true}" fill-rule="nonzero" stroke-linejoin="miter" stroke-miterlimit="10" stroke-dasharray="" stroke-dashoffset="0" style="mix-blend-mode: normal"><path d="M195.82048,223.37237c0,0 -3.08588,-1.78261 -3.08588,-10.24315c0,-20.29996 0,-56.41632 0,-67.38143c0,-6.2145 3.3664,-10.24315 3.3664,-10.24315c0,0 3.88918,-2.80758 10.37527,-2.80758c11.19667,0 47.40014,0 67.32799,0c8.0627,0 10.09474,3.08833 10.09474,3.08833c0,0 3.36639,4.25853 3.36639,10.80466c0,11.14791 0,46.83466 0,66.81992c0,8.30087 -3.64693,10.52391 -3.64693,10.52391c0,0 -3.95142,3.36906 -10.65581,3.36906c-11.17216,0 -46.33985,0 -66.20584,0c-8.36886,0 -10.93635,-3.93057 -10.93635,-3.93057z" fill="#f3f3f3" stroke="none" stroke-width="0" stroke-linecap="butt"/><path d="M230.7743,198.50138c0,0 -0.85836,-0.78427 -0.85836,-4.50654c0,-8.93109 0,-24.82072 0,-29.64489c0,-2.73411 0.93638,-4.50654 0.93638,-4.50654c0,0 1.08179,-1.23521 2.88593,-1.23521c3.11441,0 13.1846,0 18.72763,0c2.24268,0 2.80791,1.35873 2.80791,1.35873c0,0 0.93638,1.87357 0.93638,4.75358c0,4.9046 0,20.60521 0,29.39785c0,3.65202 -1.01441,4.63007 -1.01441,4.63007c0,0 -1.09911,1.48224 -2.96397,1.48224c-3.1076,0 -12.88967,0 -18.4155,0c-2.32784,0 -3.042,-1.72928 -3.042,-1.72928z" fill="none" stroke="#008eff" stroke-width="4" stroke-linecap="butt"/><path d="M223.04219,167.125c0,0 -0.14469,24.19404 -0.18727,31.31355c-0.04258,7.11951 5.28648,7.88755 5.28648,7.88755l22.00393,0.5489" fill="none" stroke="#777777" stroke-width="4" stroke-linecap="round"/></g></g></svg>