<svg version="1.1" xmlns="http://www.w3.org/2000/svg" xmlns:xlink="http://www.w3.org/1999/xlink" width="21.96142" height="30.84057" viewBox="0,0,21.96142,30.84057"><g transform="translate(-229.01929,-164.37589)"><g data-paper-data="{&quot;isPaintingLayer&quot;:true}" fill-rule="nonzero" stroke="none" stroke-linecap="butt" stroke-linejoin="miter" stroke-miterlimit="10" stroke-dasharray="" stroke-dashoffset="0" style="mix-blend-mode: normal"><path d="M229.7362,193.95206c0,0 -0.71691,-0.57343 -0.71691,-3.29502c0,-6.53011 0,-18.14807 0,-21.67534c0,-1.99909 0.78207,-3.29502 0.78207,-3.29502c0,0 0.90354,-0.90314 2.4104,-0.90314c2.60121,0 11.01201,0 15.64165,0c1.87312,0 2.34523,0.99346 2.34523,0.99346c0,0 0.78207,1.36989 0.78207,3.47565c0,3.58607 0,15.06582 0,21.49471c0,2.67022 -0.84726,3.38533 -0.84726,3.38533c0,0 -0.918,1.08377 -2.47556,1.08377c-2.59552,0 -10.76568,0 -15.38097,0c-1.94426,0 -2.54073,-1.26439 -2.54073,-1.26439z" fill="#f3f3f3" stroke-width="0"/><text transform="translate(230,185.76875) scale(0.5,0.5)" font-size="40" xml:space="preserve" fill="#000000" fill-rule="nonzero" stroke="none" stroke-width="1" stroke-linecap="butt" stroke-linejoin="miter" stroke-miterlimit="10" stroke-dasharray="" stroke-dashoffset="0" font-family="&quot;Microsoft YaHei&quot;, &quot;微软雅黑&quot;, STXihei, &quot;华文细黑&quot;" font-weight="normal" text-anchor="start" style="mix-blend-mode: normal"><tspan x="0" dy="0">中</tspan></text></g></g></svg>