<svg version="1.1" xmlns="http://www.w3.org/2000/svg" xmlns:xlink="http://www.w3.org/1999/xlink" width="20.94355" height="25" viewBox="0,0,20.94355,25"><g transform="translate(-229.04478,-168.6837)"><g data-paper-data="{&quot;isPaintingLayer&quot;:true}" fill-rule="nonzero" stroke-linejoin="miter" stroke-miterlimit="10" stroke-dasharray="" stroke-dashoffset="0" style="mix-blend-mode: normal"><path d="M229.04478,193.68371v-25h20.94355v25z" fill="#f3f3f3" stroke="none" stroke-width="0" stroke-linecap="butt"/><path d="M232.25,187.54167v-15.08333h15.5v15.08333z" fill="#f3f3f3" stroke="none" stroke-width="0" stroke-linecap="butt"/><path d="M235.616,177.91073l2.28587,-2.28587v9.07717l-2.58401,-2.58401h-1.72268v-4.19626z" data-paper-data="{&quot;origPos&quot;:null}" fill="none" stroke="#000000" stroke-width="1.1" stroke-linecap="round"/><path d="M240.30424,177.50286c0.5535,0.6391 0.88839,1.4727 0.88839,2.38453c0,0.94245 -0.35776,1.80135 -0.9449,2.44827" data-paper-data="{&quot;origPos&quot;:null}" fill="none" stroke="#000000" stroke-width="1.1" stroke-linecap="butt"/><path d="M241.96548,175.70298c1.13079,1.0995 1.83325,2.63722 1.83325,4.339c0,1.71327 -0.71199,3.26026 -1.85621,4.36121" data-paper-data="{&quot;origPos&quot;:null}" fill="none" stroke="#cccccc" stroke-width="1.1" stroke-linecap="butt"/><path d="M243.49018,173.91515c1.78101,1.48275 2.91465,3.71657 2.91465,6.21517c0,2.35626 -1.00817,4.47704 -2.61665,5.95453" data-paper-data="{&quot;origPos&quot;:null}" fill="none" stroke="#cccccc" stroke-width="1.1" stroke-linecap="butt"/></g></g></svg>