<svg version="1.1" xmlns="http://www.w3.org/2000/svg" xmlns:xlink="http://www.w3.org/1999/xlink" width="16.13793" height="11.0881" viewBox="0,0,16.13793,11.0881"><g transform="translate(-231.92305,-169.86541)"><g data-paper-data="{&quot;isPaintingLayer&quot;:true}" fill-rule="nonzero" stroke-linecap="butt" stroke-linejoin="miter" stroke-miterlimit="10" stroke-dasharray="" stroke-dashoffset="0" style="mix-blend-mode: normal"><path d="M239.29925,179.29901c0.38363,-0.36587 0.99122,-0.35149 1.35709,0.03214c0.36587,0.38363 0.35148,0.99122 -0.03215,1.3571c-0.38363,0.36587 -0.99122,0.35148 -1.35709,-0.03215c-0.36587,-0.38363 -0.35148,-0.99122 0.03215,-1.35709z" data-paper-data="{&quot;origPos&quot;:null,&quot;origRot&quot;:0}" fill="#4d4d4d" stroke="none" stroke-width="0.5"/><path d="M236.79465,178.01167c0.03528,-0.03611 0.07133,-0.07175 0.10815,-0.10686c1.68488,-1.6069 4.35339,-1.54369 5.96028,0.14119c0.04673,0.04899 0.09203,0.09882 0.13593,0.14941" data-paper-data="{&quot;origPos&quot;:null,&quot;origRot&quot;:0}" fill="none" stroke="#4d4d4d" stroke-width="1.5"/><path d="M234.62499,175.51917c2.99198,-2.84499 7.71438,-2.74635 10.58526,0.21104" data-paper-data="{&quot;origPos&quot;:null,&quot;origRot&quot;:0}" fill="none" stroke="#cccccc" stroke-width="1.5"/><path d="M232.61565,173.5436c0.01905,-0.01844 0.03818,-0.03683 0.0574,-0.05516c4.13393,-3.9426 10.66895,-3.80836 14.63793,0.28505" data-paper-data="{&quot;origPos&quot;:null,&quot;origRot&quot;:0}" fill="none" stroke="#cccccc" stroke-width="1.5"/></g></g></svg>