<svg version="1.1" xmlns="http://www.w3.org/2000/svg" xmlns:xlink="http://www.w3.org/1999/xlink" width="21.95307" height="21.95308" viewBox="0,0,21.95307,21.95308"><g transform="translate(-228.96096,-168.46096)"><g data-paper-data="{&quot;isPaintingLayer&quot;:true}" fill-rule="nonzero" stroke-linejoin="miter" stroke-miterlimit="10" stroke-dasharray="" stroke-dashoffset="0" style="mix-blend-mode: normal"><path d="M229.6776,189.50196c0,0 -0.71664,-0.41365 -0.71664,-2.37689c0,-4.71056 0,-13.09128 0,-15.63572c0,-1.44206 0.78178,-2.3769 0.78178,-2.3769c0,0 0.9032,-0.65149 2.40947,-0.65149c2.60022,0 11.00783,0 15.63571,0c1.87241,0 2.34433,0.71664 2.34433,0.71664c0,0 0.78178,0.98818 0.78178,2.5072c0,2.58685 0,10.86788 0,15.50541c0,1.92619 -0.84693,2.44205 -0.84693,2.44205c0,0 -0.91764,0.78178 -2.47462,0.78178c-2.59453,0 -10.76159,0 -15.37511,0c-1.94352,0 -2.53977,-0.91209 -2.53977,-0.91209z" fill="#f3f3f3" stroke="none" stroke-width="0" stroke-linecap="butt"/><path d="M234.87295,177.93852c0,-3.23678 2.62393,-5.86072 5.86072,-5.86072c3.23678,0 5.86071,2.62393 5.86071,5.86072c0,3.23678 -2.62393,5.86071 -5.86071,5.86071c-3.23678,0 -5.86072,-2.62393 -5.86072,-5.86071z" fill="none" stroke="#000000" stroke-width="1.5" stroke-linecap="butt"/><path d="M233.10179,186.93034l4.3038,-4.20129" fill="none" stroke="#000000" stroke-width="1.5" stroke-linecap="round"/></g></g></svg>