<svg version="1.1" xmlns="http://www.w3.org/2000/svg" xmlns:xlink="http://www.w3.org/1999/xlink" width="9.95265" height="9.91989" viewBox="0,0,9.95265,9.91989"><g transform="translate(-235.02367,-175.04005)"><g data-paper-data="{&quot;isPaintingLayer&quot;:true}" fill-rule="nonzero" stroke-linecap="butt" stroke-linejoin="miter" stroke-miterlimit="10" stroke-dasharray="" stroke-dashoffset="0" style="mix-blend-mode: normal"><path d="M243.1875,180c0,1.76041 -1.42709,3.1875 -3.1875,3.1875c-1.76041,0 -3.1875,-1.42709 -3.1875,-3.1875c0,-1.76041 1.42709,-3.1875 3.1875,-3.1875c1.76041,0 3.1875,1.42709 3.1875,3.1875z" fill="none" stroke="#dbe8f5" stroke-width="1"/><path d="M243.89032,180c0,2.14635 -1.74176,3.88631 -3.89032,3.88631c-2.14857,0 -3.89032,-1.73996 -3.89032,-3.88631c0,-2.14635 1.74176,-3.88631 3.89032,-3.88631c2.14857,0 3.89032,1.73996 3.89032,3.88631z" fill="none" stroke="#fcfcfc" stroke-width="1.5"/><path d="M243.4765,180c0,1.84957 -1.55648,3.34893 -3.4765,3.34893c-1.92003,0 -3.4765,-1.49936 -3.4765,-3.34893c0,-1.84957 1.55648,-3.34893 3.4765,-3.34893c1.92003,0 3.4765,1.49936 3.4765,3.34893z" fill="#0064c0" stroke="none" stroke-width="0"/><path d="M244.72633,180c0,2.60123 -2.11605,4.70995 -4.72633,4.70995c-2.61028,0 -4.72633,-2.10872 -4.72633,-4.70995c0,-2.60123 2.11605,-4.70995 4.72633,-4.70995c2.61028,0 4.72633,2.10872 4.72633,4.70995z" fill="none" stroke="#000000" stroke-width="0.5"/></g></g></svg>