<svg version="1.1" xmlns="http://www.w3.org/2000/svg" xmlns:xlink="http://www.w3.org/1999/xlink" width="12.58332" height="2.35897" viewBox="0,0,12.58332,2.35897"><g transform="translate(-234.02051,-179.02645)"><g data-paper-data="{&quot;isPaintingLayer&quot;:true}" fill="#008eff" fill-rule="nonzero" stroke="none" stroke-width="0" stroke-linecap="butt" stroke-linejoin="miter" stroke-miterlimit="10" stroke-dasharray="" stroke-dashoffset="0" style="mix-blend-mode: normal"><path d="M235.08334,181.38542v-2.35417h10.75v2.35417z"/><path d="M235.93717,180.19313c0,0.64433 -0.42906,1.16666 -0.95833,1.16666c-0.52927,0 -0.95833,-0.52233 -0.95833,-1.16666c0,-0.64433 0.42906,-1.16666 0.95833,-1.16666c0.52927,0 0.95833,0.52233 0.95833,1.16666z"/><path d="M246.60383,180.19312c0,0.64434 -0.42905,1.16667 -0.95833,1.16667c-0.52928,0 -0.95834,-0.52233 -0.95834,-1.16667c0,-0.64434 0.42906,-1.16666 0.95834,-1.16666c0.52928,0 0.95833,0.52232 0.95833,1.16666z"/></g></g></svg>