<svg version="1.1" xmlns="http://www.w3.org/2000/svg" xmlns:xlink="http://www.w3.org/1999/xlink" width="9.336" height="9.32846" viewBox="0,0,9.336,9.32846"><g transform="translate(-235.332,-175.33577)"><g data-paper-data="{&quot;isPaintingLayer&quot;:true}" fill-rule="nonzero" stroke-linecap="butt" stroke-linejoin="miter" stroke-miterlimit="10" stroke-dasharray="" stroke-dashoffset="0" style="mix-blend-mode: normal"><path d="M242.59491,180c0,1.43313 -1.16178,2.59491 -2.59491,2.59491c-1.43313,0 -2.59491,-1.16178 -2.59491,-2.59491c0,-1.43313 1.16178,-2.59491 2.59491,-2.59491c1.43313,0 2.59491,1.16178 2.59491,2.59491z" fill="none" stroke="#ffffff" stroke-width="2.5"/><path d="M241.88568,180c0,1.00321 -0.84423,1.81647 -1.88568,1.81647c-1.04142,0 -1.88568,-0.81326 -1.88568,-1.81647c0,-1.00321 0.84423,-1.81647 1.88568,-1.81647c1.04142,0 1.88568,0.81326 1.88568,1.81647z" fill="#0064c0" stroke="none" stroke-width="0"/><path d="M243.668,180c0,2.02369 -1.64223,3.66423 -3.668,3.66423c-2.02579,0 -3.668,-1.64053 -3.668,-3.66423c0,-2.02369 1.64223,-3.66423 3.668,-3.66423c2.02579,0 3.668,1.64053 3.668,3.66423z" fill="none" stroke="#fcfcfc" stroke-width="2"/></g></g></svg>