<svg version="1.1" xmlns="http://www.w3.org/2000/svg" xmlns:xlink="http://www.w3.org/1999/xlink" width="32.60585" height="32.60587" viewBox="0,0,32.60585,32.60587"><g transform="translate(-363.4193,-303.41935)"><g data-paper-data="{&quot;isPaintingLayer&quot;:true}" fill="#ffffff" fill-rule="nonzero" stroke="none" stroke-width="0" stroke-linecap="butt" stroke-linejoin="miter" stroke-miterlimit="10" stroke-dasharray="" stroke-dashoffset="0" style="mix-blend-mode: normal"><path d="M364.48368,334.67054c0,0 -1.06439,-0.61438 -1.06439,-3.5303c0,-6.99637 0,-19.44385 0,-23.22298c0,-2.14182 1.16115,-3.5303 1.16115,-3.5303c0,0 1.34147,-0.96763 3.57867,-0.96763c3.86199,0 16.3494,0 23.22298,0c2.78101,0 3.48191,1.06439 3.48191,1.06439c0,0 1.16115,1.4677 1.16115,3.72382c0,3.84212 0,16.14154 0,23.02945c0,2.86089 -1.25791,3.62706 -1.25791,3.62706c0,0 -1.36294,1.16115 -3.67544,1.16115c-3.85354,0 -15.98369,0 -22.83592,0c-2.88661,0 -3.7722,-1.35467 -3.7722,-1.35467z"/></g></g></svg>