<svg version="1.1" xmlns="http://www.w3.org/2000/svg" xmlns:xlink="http://www.w3.org/1999/xlink" width="6.50833" height="20.50833" viewBox="0,0,6.50833,20.50833"><g transform="translate(-235.27911,-173.33863)"><g data-paper-data="{&quot;isPaintingLayer&quot;:true}" fill="#008eff" fill-rule="nonzero" stroke="none" stroke-width="0" stroke-linecap="butt" stroke-linejoin="miter" stroke-miterlimit="10" stroke-dasharray="" stroke-dashoffset="0" style="mix-blend-mode: normal"><path d="M235.3827,190.90055v-14.65h6.375v14.65z"/><path d="M241.78745,175.93446c0,1.43364 -1.42896,2.59583 -3.19167,2.59583c-1.76271,0 -3.19167,-1.16219 -3.19167,-2.59583c0,-1.43364 1.42896,-2.59583 3.19167,-2.59583c1.76271,0 3.19167,1.16219 3.19167,2.59583z"/><path d="M241.72078,191.14696c0,1.49117 -1.44202,2.7 -3.22083,2.7c-1.77881,0 -3.22083,-1.20883 -3.22083,-2.7c0,-1.49117 1.44202,-2.7 3.22083,-2.7c1.77881,0 3.22083,1.20883 3.22083,2.7z"/></g></g></svg>