<svg version="1.1" xmlns="http://www.w3.org/2000/svg" xmlns:xlink="http://www.w3.org/1999/xlink" width="94.53079" height="94.60588" viewBox="0,0,94.53079,94.60588"><g transform="translate(-192.7346,-132.69706)"><g data-paper-data="{&quot;isPaintingLayer&quot;:true}" fill-rule="nonzero" stroke-linejoin="miter" stroke-miterlimit="10" stroke-dasharray="" stroke-dashoffset="0" style="mix-blend-mode: normal"><path d="M195.82049,223.37237c0,0 -3.08588,-1.78261 -3.08588,-10.24315c0,-20.29996 0,-56.41632 0,-67.38143c0,-6.2145 3.3664,-10.24315 3.3664,-10.24315c0,0 3.88918,-2.80758 10.37527,-2.80758c11.19667,0 47.40014,0 67.32799,0c8.0627,0 10.09474,3.08833 10.09474,3.08833c0,0 3.36639,4.25853 3.36639,10.80466c0,11.14791 0,46.83466 0,66.81992c0,8.30087 -3.64693,10.52391 -3.64693,10.52391c0,0 -3.95142,3.36906 -10.65581,3.36906c-11.17216,0 -46.33985,0 -66.20584,0c-8.36886,0 -10.93635,-3.93057 -10.93635,-3.93057z" fill="#f3f3f3" stroke="none" stroke-width="0" stroke-linecap="butt"/><path d="M238.13541,203.97989c0,0 -0.74494,-0.68064 -0.74494,-3.91105c0,-7.75093 0,-21.54091 0,-25.72761c0,-2.37282 0.81265,-3.91105 0.81265,-3.91105c0,0 0.93884,-1.07199 2.50458,-1.07199c2.70287,0 11.44238,0 16.25296,0c1.94633,0 2.43687,1.17919 2.43687,1.17919c0,0 0.81265,1.626 0.81265,4.12544c0,4.25651 0,17.88243 0,25.51321c0,3.16944 -0.88037,4.01825 -0.88037,4.01825c0,0 -0.95387,1.28638 -2.57231,1.28638c-2.69696,0 -11.18643,0 -15.98207,0c-2.02024,0 -2.64003,-1.50077 -2.64003,-1.50077z" fill="none" stroke="#008eff" stroke-width="4" stroke-linecap="butt"/><path d="M235.09774,204.79448l-4.85859,-0.06801c0,0 -1.18672,-0.58526 -1.16906,-5.83183c0.01765,-5.24657 0.07765,-23.07586 0.07765,-23.07586" fill="none" stroke="#777777" stroke-width="4" stroke-linecap="round"/><path d="M229.23652,186.01471l0.25947,-18.95271c0,0 0.4829,-4.59399 5.19192,-4.60095c1.06222,-0.00157 4.5973,-0.0068 4.5973,-0.0068c0,0 8.87635,-0.01313 11.83898,-0.01752c1.78035,-0.00263 1.35177,3.69793 1.35177,3.69793" fill="none" stroke="#777777" stroke-width="4" stroke-linecap="round"/><path d="M235.63549,161.56655l0,-5.16667c0,0 4.32615,0 7.75976,0c1.81677,0 3.08165,0 3.98474,0c1.30494,0 0.83889,5.5 0.83889,5.5" fill="none" stroke="#777777" stroke-width="3.5" stroke-linecap="round"/></g></g></svg>