<svg version="1.1" xmlns="http://www.w3.org/2000/svg" xmlns:xlink="http://www.w3.org/1999/xlink" width="6.50828" height="23.74514" viewBox="0,0,6.50828,23.74514"><g transform="translate(-214.24273,-221.30196)"><g data-paper-data="{&quot;isPaintingLayer&quot;:true}" fill-rule="nonzero" stroke="none" stroke-width="1" stroke-linecap="butt" stroke-linejoin="miter" stroke-miterlimit="10" stroke-dasharray="" stroke-dashoffset="0" style="mix-blend-mode: normal"><g><path d="M217.952,239.615c0,0 0.688,-3.37 0.828,-3.15l1.668,5.067c0,0 0.504,1.6 0.212,1.917c-0.196,0.22 -1.2,-1.105 -1.888,-2.402l-0.032,-0.06z" fill="#82001e"/><path d="M219.572,223.663c0.18,3.242 -0.172,10.541 -0.232,11.682c-0.168,3.237 0,6.455 -0.156,9.688c-1.004,0.229 -0.556,-2.401 -0.968,-2.717c-0.988,-0.728 -0.572,2.497 -1.048,2.601c-0.476,0.104 -0.308,-2.401 -0.96,-2.681c-0.656,0.436 -0.676,2.549 -1.072,2.497c-0.396,-0.052 -1.016,-10.833 -0.872,-16.936c0,0 0,-6.275 2.616,-6.483c2.616,-0.208 2.692,2.349 2.692,2.349z" fill="#be0a3c"/></g></g></g></svg>