<svg version="1.1" xmlns="http://www.w3.org/2000/svg" xmlns:xlink="http://www.w3.org/1999/xlink" width="477.22924" height="54" viewBox="0,0,477.22924,54"><defs><linearGradient x1="1.38539" y1="176" x2="478.61463" y2="176" gradientUnits="userSpaceOnUse" id="color-1"><stop offset="0" stop-color="#000000" stop-opacity="0"/><stop offset="1" stop-color="#000000" stop-opacity="0"/></linearGradient></defs><g transform="translate(-1.38536,-149.00001)"><g data-paper-data="{&quot;isPaintingLayer&quot;:true}" fill="#f3f3f3" fill-rule="nonzero" stroke="url(#color-1)" stroke-width="0" stroke-linecap="butt" stroke-linejoin="miter" stroke-miterlimit="10" stroke-dasharray="" stroke-dashoffset="0" style="mix-blend-mode: normal"><path d="M1.38539,150.47712c0.54213,-0.30953 0.96534,-0.68449 1.2283,-1.10175c0.86854,-0.01844 1.68421,-0.15246 2.39921,-0.37536h470.57573c0.30822,0.05948 0.62914,0.10368 0.95989,0.13099c0.36516,0.38781 0.87771,0.72543 1.49594,0.98955c0.14596,0.22373 0.33815,0.435 0.57014,0.6302v50.56312c-0.14428,0.14983 -0.26644,0.30731 -0.36407,0.47107c-0.62347,0.29033 -1.1274,0.65829 -1.46438,1.07735c-0.05686,0.04501 -0.11155,0.09094 -0.16403,0.13772h-472.81992c-0.43287,-0.28314 -0.95834,-0.52064 -1.55014,-0.69784c-0.16764,-0.38174 -0.46588,-0.73476 -0.8667,-1.04338z"/></g></g></svg>