<svg version="1.1" xmlns="http://www.w3.org/2000/svg" xmlns:xlink="http://www.w3.org/1999/xlink" width="94.53079" height="94.60588" viewBox="0,0,94.53079,94.60588"><g transform="translate(-192.73467,-132.69706)"><g data-paper-data="{&quot;isPaintingLayer&quot;:true}" fill-rule="nonzero" stroke-linejoin="miter" stroke-miterlimit="10" stroke-dasharray="" stroke-dashoffset="0" style="mix-blend-mode: normal"><path d="M195.82056,223.37237c0,0 -3.08588,-1.78261 -3.08588,-10.24315c0,-20.29996 0,-56.41632 0,-67.38143c0,-6.2145 3.3664,-10.24315 3.3664,-10.24315c0,0 3.88918,-2.80758 10.37527,-2.80758c11.19667,0 47.40014,0 67.32799,0c8.0627,0 10.09474,3.08833 10.09474,3.08833c0,0 3.36639,4.25853 3.36639,10.80466c0,11.14791 0,46.83466 0,66.81992c0,8.30087 -3.64693,10.52391 -3.64693,10.52391c0,0 -3.95142,3.36906 -10.65581,3.36906c-11.17216,0 -46.33985,0 -66.20584,0c-8.36886,0 -10.93635,-3.93057 -10.93635,-3.93057z" fill="#ffffff" stroke="none" stroke-width="0" stroke-linecap="butt"/><path d="M247.68479,197.51208l14.77448,-17.05439l-14.6917,-19.18398" fill="none" stroke="#949494" stroke-width="3.5" stroke-linecap="round"/><path d="M224.23682,180.7029v-0.2h34v0.2z" fill="none" stroke="#949494" stroke-width="4" stroke-linecap="butt"/></g></g></svg>