<svg version="1.1" xmlns="http://www.w3.org/2000/svg" xmlns:xlink="http://www.w3.org/1999/xlink" width="94.53079" height="94.60588" viewBox="0,0,94.53079,94.60588"><g transform="translate(-192.73462,-132.69706)"><g data-paper-data="{&quot;isPaintingLayer&quot;:true}" fill-rule="nonzero" stroke-linejoin="miter" stroke-miterlimit="10" stroke-dasharray="" stroke-dashoffset="0" style="mix-blend-mode: normal"><path d="M195.82051,223.37237c0,0 -3.08588,-1.78261 -3.08588,-10.24315c0,-20.29996 0,-56.41632 0,-67.38143c0,-6.2145 3.3664,-10.24315 3.3664,-10.24315c0,0 3.88918,-2.80758 10.37527,-2.80758c11.19667,0 47.40014,0 67.32799,0c8.0627,0 10.09474,3.08833 10.09474,3.08833c0,0 3.36639,4.25853 3.36639,10.80466c0,11.14791 0,46.83466 0,66.81992c0,8.30087 -3.64693,10.52391 -3.64693,10.52391c0,0 -3.95142,3.36906 -10.65581,3.36906c-11.17216,0 -46.33985,0 -66.20584,0c-8.36886,0 -10.93635,-3.93057 -10.93635,-3.93057z" fill="#f3f3f3" stroke="none" stroke-width="0" stroke-linecap="butt"/><path d="M227.65062,181.92325l15.65497,-0.15909" fill="none" stroke="#008eff" stroke-width="3" stroke-linecap="round"/><path d="M242.85401,161.48064l8.74918,-0.08891" fill="none" stroke="#008eff" stroke-width="2.5" stroke-linecap="round"/><path d="M246.63454,201.69755l-0.13145,-38.77746" fill="none" stroke="#008eff" stroke-width="3" stroke-linecap="round"/><path d="M244.22147,200.03067c-4.54732,0 -8.90547,0 -12.44753,0c-4.98829,0 -6.51865,-1.43845 -6.51865,-1.43845l0.00002,-0.00001c0,0 -1.83937,-0.65237 -1.83937,-3.74864c0,-7.42907 0,-20.64641 0,-24.65926c0,-2.27429 2.00655,-3.74864 2.00655,-3.74864c0,0 2.31815,-1.02747 6.18421,-1.02747c2.49264,0 7.06457,0 12.43372,0" fill="none" stroke="#777777" stroke-width="4" stroke-linecap="butt"/><path d="M249.97147,200.28067c2.82918,0 5.54067,0 7.74442,0c3.10354,0 4.05568,-1.43845 4.05568,-1.43845l-0.00001,-0.00001c0,0 1.14439,-0.65238 1.14439,-3.74864c0,-7.42908 0,-20.64641 0,-24.65926c0,-2.27429 -1.24841,-3.74864 -1.24841,-3.74864c0,0 -1.44227,-1.02748 -3.8476,-1.02748c-1.55083,0 -4.39532,0 -7.73583,0" fill="none" stroke="#777777" stroke-width="4" stroke-linecap="butt"/><path d="M242.10401,203.48064l8.74918,-0.08892" fill="none" stroke="#008eff" stroke-width="2.5" stroke-linecap="round"/></g></g></svg>