<svg version="1.1" xmlns="http://www.w3.org/2000/svg" xmlns:xlink="http://www.w3.org/1999/xlink" width="9.336" height="9.32846" viewBox="0,0,9.336,9.32846"><g transform="translate(-235.332,-175.33578)"><g data-paper-data="{&quot;isPaintingLayer&quot;:true}" fill-rule="nonzero" stroke-linecap="butt" stroke-linejoin="miter" stroke-miterlimit="10" stroke-dasharray="" stroke-dashoffset="0" style="mix-blend-mode: normal"><path d="M242.74307,180.00001c0,1.51495 -1.22811,2.74306 -2.74306,2.74306c-1.51495,0 -2.74306,-1.22811 -2.74306,-2.74306c0,-1.51495 1.22811,-2.74306 2.74306,-2.74306c1.51495,0 2.74306,1.22811 2.74306,2.74306z" fill="none" stroke="#ffffff" stroke-width="2"/><path d="M242.33612,180.00001c0,1.24285 -1.04591,2.25038 -2.33611,2.25038c-1.2902,0 -2.33611,-1.00753 -2.33611,-2.25038c0,-1.24285 1.04591,-2.25038 2.33611,-2.25038c1.2902,0 2.33611,1.00753 2.33611,2.25038z" fill="#0064c0" stroke="none" stroke-width="0"/><path d="M243.66801,180.00002c0,2.02369 -1.64223,3.66423 -3.668,3.66423c-2.02579,0 -3.668,-1.64053 -3.668,-3.66423c0,-2.02369 1.64223,-3.66423 3.668,-3.66423c2.02579,0 3.668,1.64053 3.668,3.66423z" fill="none" stroke="#fcfcfc" stroke-width="2"/></g></g></svg>