<svg version="1.1" xmlns="http://www.w3.org/2000/svg" xmlns:xlink="http://www.w3.org/1999/xlink" width="9.28063" height="9.27263" viewBox="0,0,9.28063,9.27263"><g transform="translate(-235.35968,-175.36369)"><g data-paper-data="{&quot;isPaintingLayer&quot;:true}" fill-rule="nonzero" stroke-linecap="butt" stroke-linejoin="miter" stroke-miterlimit="10" stroke-dasharray="" stroke-dashoffset="0" style="mix-blend-mode: normal"><path d="M243.1875,180c0,1.76041 -1.42709,3.1875 -3.1875,3.1875c-1.76041,0 -3.1875,-1.42709 -3.1875,-3.1875c0,-1.76041 1.42709,-3.1875 3.1875,-3.1875c1.76041,0 3.1875,1.42709 3.1875,3.1875z" fill="none" stroke="#dbe8f5" stroke-width="1"/><path d="M242.725,180c0,1.44975 -1.22002,2.625 -2.725,2.625c-1.50498,0 -2.725,-1.17525 -2.725,-2.625c0,-1.44975 1.22002,-2.625 2.725,-2.625c1.50498,0 2.725,1.17525 2.725,2.625z" fill="#0064c0" stroke="none" stroke-width="0"/><path d="M243.89032,180c0,2.14635 -1.74176,3.88631 -3.89032,3.88631c-2.14857,0 -3.89032,-1.73996 -3.89032,-3.88631c0,-2.14635 1.74176,-3.88631 3.89032,-3.88631c2.14857,0 3.89032,1.73996 3.89032,3.88631z" fill="none" stroke="#fcfcfc" stroke-width="1.5"/></g></g></svg>