<svg version="1.1" xmlns="http://www.w3.org/2000/svg" xmlns:xlink="http://www.w3.org/1999/xlink" width="9.336" height="9.32846" viewBox="0,0,9.336,9.32846"><g transform="translate(-235.33201,-175.3358)"><g data-paper-data="{&quot;isPaintingLayer&quot;:true}" fill-rule="nonzero" stroke-linecap="butt" stroke-linejoin="miter" stroke-miterlimit="10" stroke-dasharray="" stroke-dashoffset="0" style="mix-blend-mode: normal"><path d="M242.85419,180.00002c0,1.57631 -1.27785,2.85417 -2.85417,2.85417c-1.57631,0 -2.85417,-1.27785 -2.85417,-2.85417c0,-1.57631 1.27785,-2.85417 2.85417,-2.85417c1.57631,0 2.85417,1.27785 2.85417,2.85417z" fill="none" stroke="#ffffff" stroke-width="1.5"/><path d="M242.14617,180c0,1.1418 -0.96086,2.06741 -2.14617,2.06741c-1.18529,0 -2.14617,-0.92561 -2.14617,-2.06741c0,-1.1418 0.96086,-2.06741 2.14617,-2.06741c1.18529,0 2.14617,0.92561 2.14617,2.06741z" fill="#0064c0" stroke="none" stroke-width="0"/><path d="M243.66802,180.00003c0,2.02369 -1.64223,3.66423 -3.668,3.66423c-2.02579,0 -3.668,-1.64053 -3.668,-3.66423c0,-2.02369 1.64223,-3.66423 3.668,-3.66423c2.02579,0 3.668,1.64053 3.668,3.66423z" fill="none" stroke="#fcfcfc" stroke-width="2"/></g></g></svg>